<?xml version="1.0" encoding="UTF-8" standalone="no"?>
<!-- Uploaded to: SVG Repo, www.svgrepo.com, Generator: SVG Repo Mixer Tools -->

<svg
   aria-label="Google Scholar"
   role="img"
   viewBox="0 0 512 512"
   version="1.1"
   id="svg6"
   sodipodi:docname="google-scholar-svgrepo-com.svg"
   inkscape:version="1.2.2 (732a01da63, 2022-12-09)"
   xmlns:inkscape="http://www.inkscape.org/namespaces/inkscape"
   xmlns:sodipodi="http://sodipodi.sourceforge.net/DTD/sodipodi-0.dtd"
   xmlns="http://www.w3.org/2000/svg"
   xmlns:svg="http://www.w3.org/2000/svg">
  <defs
     id="defs10" />
  <sodipodi:namedview
     id="namedview8"
     pagecolor="#ffffff"
     bordercolor="#000000"
     borderopacity="0.25"
     inkscape:showpageshadow="2"
     inkscape:pageopacity="0.0"
     inkscape:pagecheckerboard="0"
     inkscape:deskcolor="#d1d1d1"
     showgrid="false"
     inkscape:zoom="14.75"
     inkscape:cx="-2.7457627"
     inkscape:cy="-4.3050848"
     inkscape:window-width="1920"
     inkscape:window-height="1111"
     inkscape:window-x="-9"
     inkscape:window-y="-9"
     inkscape:window-maximized="1"
     inkscape:current-layer="svg6" />
  <rect
     width="20"
     height="20"
     rx="0.58593762%"
     fill="#4285f4"
     id="rect2"
     x="0"
     y="0"
     style="fill:#000000;fill-opacity:1;stroke-width:0.0390622" />
  <path
     fill="#ffffff"
     d="M 8.3203133,4.3359381 4.1406254,8.0078137 h 2.6953124 c 0.1953128,1.75781 1.6015629,2.4999983 3.0468733,2.6171863 -0.2734341,0.703124 -0.1562493,1.054689 0.2734399,1.523439 -1.6796881,0.0391 -4.0234381,1.015628 -4.0234381,2.61719 0.1562504,1.757816 2.4609382,2.109372 3.5937489,2.109372 1.4843732,0.03911 3.1640662,-0.742188 3.5156232,-2.109372 0.156254,-1.36719 -0.390622,-2.109379 -1.210934,-2.773445 C 11.132811,11.289068 10.937502,10.89844 11.210935,10.42969 11.796878,9.7656237 12.578124,9.3750003 12.734374,8.4375007 12.81249,7.7734379 12.656257,7.3437503 12.5,6.7578129 l 1.757818,-1.4843747 -0.03915,0.6249999 C 14.10151,5.9765671 14.023385,6.1328129 14.023385,6.2500005 V 10.27344 c 0.07812,0.507811 0.859376,0.429684 0.89844,0 V 6.2500005 c 0,-0.1171876 -0.07812,-0.2734379 -0.195315,-0.3125001 V 4.9609382 l 0.625045,-0.6250001 z m 2.2656217,5.507812 C 8.2031255,10.234373 7.1875006,6.4453129 9.1015626,5.9765626 11.289068,5.546876 12.343751,9.3359384 10.585935,9.8437501 Z m -0.195307,2.8515629 c 2.343746,0.507811 2.382811,2.460944 0.390623,3.046878 -1.7187511,0.351555 -3.2031254,-0.156255 -3.1640632,-1.171878 0,-0.976566 1.3671874,-1.875 2.7734402,-1.875 z"
     id="path4"
     style="stroke-width:0.0390622" />
</svg>
